<svg xmlns="http://www.w3.org/2000/svg" viewBox="0 0 290.68 199.57"><defs><style>.cls-1{fill:#afafaf;}</style></defs><title>logo_loader</title><g id="Calque_2" data-name="Calque 2"><g id="Calque_1-2" data-name="Calque 1"><path d="M131.93,105.63v10.79h-1.72V92.57h6.09q4.13,0,6.17,1.59a5.58,5.58,0,0,1,2,4.68,6.45,6.45,0,0,1-.47,2.5,5.9,5.9,0,0,1-1.36,2,7.23,7.23,0,0,1-2.13,1.4,9.54,9.54,0,0,1-2.82.72,2.75,2.75,0,0,1,.72.67l8.21,10.32h-1.5a1,1,0,0,1-.46-.1,1.19,1.19,0,0,1-.38-.34l-7.63-9.68a1.73,1.73,0,0,0-.62-.52,2.54,2.54,0,0,0-1-.15Zm0-1.28h4.15a9.86,9.86,0,0,0,2.84-.38,6.12,6.12,0,0,0,2.12-1.09,4.67,4.67,0,0,0,1.32-1.7,5.31,5.31,0,0,0,.46-2.24,4.38,4.38,0,0,0-1.67-3.78,8.11,8.11,0,0,0-4.85-1.23h-4.37Z"/><path d="M194,106.58v9.85h-1.74v-9.85l-8.82-14H185a.61.61,0,0,1,.38.11,1.29,1.29,0,0,1,.28.31l6.83,11a8.09,8.09,0,0,1,.4.75q.17.36.3.73.14-.37.3-.73a7.68,7.68,0,0,1,.41-.75l6.81-11a1,1,0,0,1,.25-.3.61.61,0,0,1,.39-.12h1.52Z"/><polygon points="72.55 100.58 80.63 111.36 80.63 108.84 72.55 98.03 72.55 100.58"/><path d="M84.32,92.57v23.66a.7.7,0,0,0,.47.2h.83V92.57Z"/><path d="M68.86,95.66V93.09l-.15-.2a.8.8,0,0,0-.29-.26,1,1,0,0,0-.37-.06h-.84v23.85h1.5V96.34c0-.3,0-.62-.05-1Z"/><path d="M35.67,103.11a12.77,12.77,0,0,1,.6-3.11,9.61,9.61,0,0,1,2-3.37,8.52,8.52,0,0,1,3-2.12,10,10,0,0,1,3.89-.73,10.17,10.17,0,0,1,3.93.73,8.34,8.34,0,0,1,3,2.12A9.67,9.67,0,0,1,54.06,100a12.91,12.91,0,0,1,.59,3.11h1.78a13.87,13.87,0,0,0-.72-3.62,11.21,11.21,0,0,0-2.33-3.85,10.24,10.24,0,0,0-3.59-2.47,12,12,0,0,0-4.64-.87,11.77,11.77,0,0,0-4.6.88A10.37,10.37,0,0,0,37,95.65a11.21,11.21,0,0,0-2.34,3.84,13.73,13.73,0,0,0-.73,3.62Z"/><path d="M54.59,106.8a12,12,0,0,1-.52,2.18,9.69,9.69,0,0,1-1.95,3.36,8.26,8.26,0,0,1-3,2.11,10.26,10.26,0,0,1-3.93.73,10.1,10.1,0,0,1-3.89-.73,8.44,8.44,0,0,1-3-2.11,9.63,9.63,0,0,1-2-3.36,11.86,11.86,0,0,1-.53-2.18H34a13.19,13.19,0,0,0,.65,2.7A11.21,11.21,0,0,0,37,113.35a10.27,10.27,0,0,0,3.59,2.46,12.72,12.72,0,0,0,9.24,0,10.27,10.27,0,0,0,3.59-2.46,11.11,11.11,0,0,0,2.33-3.84,13.31,13.31,0,0,0,.64-2.7Z"/><rect x="208.9" y="92.57" width="18.53" height="1.37"/><rect x="217.33" y="97.62" width="1.72" height="18.8"/><rect x="172.71" y="92.57" width="1.74" height="7.45"/><rect x="172.71" y="108.65" width="1.74" height="7.78"/><rect x="156.04" y="92.57" width="1.74" height="7.45"/><rect x="156.04" y="108.65" width="1.74" height="7.78"/><path d="M98.16,103.11a12.77,12.77,0,0,1,.6-3.11,9.61,9.61,0,0,1,2-3.37,8.52,8.52,0,0,1,3-2.12,10,10,0,0,1,3.89-.73,10.17,10.17,0,0,1,3.93.73,8.34,8.34,0,0,1,3,2.12,9.67,9.67,0,0,1,1.95,3.37,12.91,12.91,0,0,1,.59,3.11h1.78a13.87,13.87,0,0,0-.72-3.62,11.21,11.21,0,0,0-2.33-3.85,10.24,10.24,0,0,0-3.59-2.47,12,12,0,0,0-4.64-.87,11.77,11.77,0,0,0-4.6.88,10.37,10.37,0,0,0-3.59,2.47,11.21,11.21,0,0,0-2.34,3.84,13.73,13.73,0,0,0-.73,3.62Z"/><path d="M117.08,106.8a12,12,0,0,1-.52,2.18,9.69,9.69,0,0,1-1.95,3.36,8.26,8.26,0,0,1-3,2.11,10.26,10.26,0,0,1-3.93.73,10.1,10.1,0,0,1-3.89-.73,8.44,8.44,0,0,1-3-2.11,9.63,9.63,0,0,1-2-3.36,11.86,11.86,0,0,1-.53-2.18H96.47a13.19,13.19,0,0,0,.65,2.7,11.21,11.21,0,0,0,2.34,3.84,10.27,10.27,0,0,0,3.59,2.46,12.72,12.72,0,0,0,9.24,0,10.27,10.27,0,0,0,3.59-2.46,11.11,11.11,0,0,0,2.33-3.84,13.31,13.31,0,0,0,.64-2.7Z"/><rect x="164.61" y="97.25" width="1.24" height="18.38" transform="translate(271.67 -58.78) rotate(90)"/><rect x="164.61" y="92.95" width="1.24" height="18.38" transform="translate(267.37 -63.09) rotate(90)"/><rect x="253.29" y="92.57" width="1.74" height="7.45"/><rect x="253.29" y="108.65" width="1.74" height="7.78"/><rect x="236.62" y="92.57" width="1.74" height="7.45"/><rect x="236.62" y="108.65" width="1.74" height="7.78"/><rect x="245.32" y="97.25" width="1.24" height="18.38" transform="translate(352.38 -139.49) rotate(90)"/><rect x="245.32" y="92.95" width="1.24" height="18.38" transform="translate(348.08 -143.8) rotate(90)"/><rect class="cls-1" x="138.77" y="70.5" width="21.68" height="2.3"/><rect class="cls-1" x="139.53" y="136.74" width="19.94" height="12.31"/><rect class="cls-1" x="111.75" y="136.74" width="12.78" height="37.31"/><polygon class="cls-1" points="124.53 73.47 111.75 73.47 111.75 53.23 124.53 40.47 124.53 73.47"/><rect class="cls-1" x="172.65" y="136.74" width="12.78" height="37.31"/><rect class="cls-1" x="172.65" y="40.47" width="12.78" height="33"/><rect class="cls-1" x="198.08" y="136.74" width="8.18" height="12.31"/><polygon class="cls-1" points="206.84 73.47 198.08 73.47 198.08 61.93 206.84 65.93 206.84 73.47"/><rect class="cls-1" x="89.53" y="136.74" width="8.18" height="12.31"/><polygon class="cls-1" points="98.28 73.47 89.53 73.47 89.53 66.93 98.28 61.93 98.28 73.47"/><polyline class="cls-1" points="155.99 199.57 139.53 199.57 139.53 159.47 159.47 159.47 159.47 199.57 155.99 199.57"/><rect class="cls-1" x="138.77" y="65.45" width="21.68" height="2.3"/><rect class="cls-1" x="139.53" y="152.96" width="19.94" height="2.3"/><rect class="cls-1" x="139.53" y="60.39" width="19.94" height="2.3"/><polygon class="cls-1" points="139.53 56.51 159.47 56.51 159.47 17.01 139.53 0 139.53 56.51"/><path d="M11.78,110q.1-.27.21-.52a4.51,4.51,0,0,1,.24-.49L21.5,92.62a.61.61,0,0,1,.27-.27,1.07,1.07,0,0,1,.37,0h1.18v23.6h-1.5V95.78a9,9,0,0,1,0-.92l-9.29,16.5a.73.73,0,0,1-.67.43h-.27a.75.75,0,0,1-.67-.43L1.43,94.85a9.11,9.11,0,0,1,0,.93V115.9H0V92.3H1.17a1.16,1.16,0,0,1,.38,0,.59.59,0,0,1,.28.27L11.34,109A6.75,6.75,0,0,1,11.78,110Z"/><path d="M279.14,110q.1-.27.21-.52a4.51,4.51,0,0,1,.24-.49l9.27-16.39a.61.61,0,0,1,.27-.27,1.07,1.07,0,0,1,.37,0h1.18v23.6h-1.5V95.78a9,9,0,0,1,0-.92l-9.29,16.5a.73.73,0,0,1-.67.43H279a.75.75,0,0,1-.67-.43L268.8,94.85a9.11,9.11,0,0,1,0,.93V115.9h-1.48V92.3h1.17a1.16,1.16,0,0,1,.38,0,.59.59,0,0,1,.28.27L278.7,109A6.75,6.75,0,0,1,279.14,110Z"/></g></g></svg>