<svg xmlns="http://www.w3.org/2000/svg" viewBox="0 0 173.97 14.59"><defs><style>.cls-1{fill:#fff;}</style></defs><title>logotypo</title><g id="Calque_2" data-name="Calque 2"><g id="Calque_1-2" data-name="Calque 1"><path class="cls-1" d="M153.21,75.51V82h-1V67.69h3.64a6,6,0,0,1,3.69,1,3.34,3.34,0,0,1,1.22,2.8,3.86,3.86,0,0,1-.28,1.49,3.53,3.53,0,0,1-.81,1.19,4.33,4.33,0,0,1-1.27.84,5.71,5.71,0,0,1-1.68.43,1.65,1.65,0,0,1,.43.4L162,82h-.9a.6.6,0,0,1-.28-.06.71.71,0,0,1-.23-.2l-4.57-5.79a1,1,0,0,0-.37-.31,1.52,1.52,0,0,0-.61-.09Zm0-.77h2.48a5.9,5.9,0,0,0,1.7-.23,3.66,3.66,0,0,0,1.27-.65,2.8,2.8,0,0,0,.79-1,3.18,3.18,0,0,0,.27-1.34,2.62,2.62,0,0,0-1-2.26,4.85,4.85,0,0,0-2.91-.74h-2.61Z" transform="translate(-74.26 -67.53)"/><path class="cls-1" d="M190.37,76.08V82h-1V76.08l-5.28-8.38h.9a.37.37,0,0,1,.23.07.77.77,0,0,1,.17.19l4.09,6.56a4.84,4.84,0,0,1,.24.45q.1.22.18.44.08-.22.18-.44a4.6,4.6,0,0,1,.24-.45l4.08-6.56a.57.57,0,0,1,.15-.18.36.36,0,0,1,.23-.07h.91Z" transform="translate(-74.26 -67.53)"/><polygon class="cls-1" points="43.42 4.96 48.26 11.41 48.26 9.9 43.42 3.43 43.42 4.96"/><path class="cls-1" d="M124.72,67.69V81.85A.42.42,0,0,0,125,82h.49V67.69Z" transform="translate(-74.26 -67.53)"/><path class="cls-1" d="M115.47,69.54V68l-.09-.12a.48.48,0,0,0-.17-.16.57.57,0,0,0-.22,0h-.5V82h.9V70c0-.18,0-.37,0-.57Z" transform="translate(-74.26 -67.53)"/><path class="cls-1" d="M95.6,74A7.64,7.64,0,0,1,96,72.14a5.75,5.75,0,0,1,1.18-2A5.1,5.1,0,0,1,99,68.86a6,6,0,0,1,2.33-.44,6.09,6.09,0,0,1,2.35.44,5,5,0,0,1,1.81,1.27,5.79,5.79,0,0,1,1.17,2A7.73,7.73,0,0,1,107,74H108a8.3,8.3,0,0,0-.43-2.17,6.71,6.71,0,0,0-1.39-2.31,6.13,6.13,0,0,0-2.15-1.48,7.16,7.16,0,0,0-2.77-.52,7,7,0,0,0-2.75.52,6.21,6.21,0,0,0-2.15,1.48,6.71,6.71,0,0,0-1.4,2.3A8.22,8.22,0,0,0,94.55,74Z" transform="translate(-74.26 -67.53)"/><path class="cls-1" d="M106.93,76.21a7.18,7.18,0,0,1-.31,1.3,5.8,5.8,0,0,1-1.17,2,4.94,4.94,0,0,1-1.81,1.26,6.14,6.14,0,0,1-2.35.43A6,6,0,0,1,99,80.79a5,5,0,0,1-1.82-1.26,5.76,5.76,0,0,1-1.18-2,7.1,7.1,0,0,1-.32-1.3H94.59A7.9,7.9,0,0,0,95,77.83a6.71,6.71,0,0,0,1.4,2.3,6.15,6.15,0,0,0,2.15,1.47,7.61,7.61,0,0,0,5.53,0,6.15,6.15,0,0,0,2.15-1.47,6.65,6.65,0,0,0,1.39-2.3,8,8,0,0,0,.39-1.62Z" transform="translate(-74.26 -67.53)"/><rect class="cls-1" x="125.03" y="0.16" width="11.09" height="0.82"/><rect class="cls-1" x="130.07" y="3.19" width="1.03" height="11.25"/><rect class="cls-1" x="103.36" y="0.16" width="1.04" height="4.46"/><rect class="cls-1" x="103.36" y="9.78" width="1.04" height="4.65"/><rect class="cls-1" x="93.39" y="0.16" width="1.04" height="4.46"/><rect class="cls-1" x="93.39" y="9.78" width="1.04" height="4.65"/><path class="cls-1" d="M133,74a7.64,7.64,0,0,1,.36-1.86,5.75,5.75,0,0,1,1.18-2,5.1,5.1,0,0,1,1.82-1.27,6,6,0,0,1,2.33-.44,6.09,6.09,0,0,1,2.35.44,5,5,0,0,1,1.81,1.27,5.79,5.79,0,0,1,1.17,2,7.73,7.73,0,0,1,.35,1.86h1.06a8.3,8.3,0,0,0-.43-2.17,6.71,6.71,0,0,0-1.39-2.31,6.13,6.13,0,0,0-2.15-1.48,7.16,7.16,0,0,0-2.77-.52,7,7,0,0,0-2.75.52,6.21,6.21,0,0,0-2.15,1.48,6.71,6.71,0,0,0-1.4,2.3A8.22,8.22,0,0,0,132,74Z" transform="translate(-74.26 -67.53)"/><path class="cls-1" d="M144.33,76.21a7.18,7.18,0,0,1-.31,1.3,5.8,5.8,0,0,1-1.17,2A4.94,4.94,0,0,1,141,80.79a6.14,6.14,0,0,1-2.35.43,6,6,0,0,1-2.33-.43,5,5,0,0,1-1.82-1.26,5.76,5.76,0,0,1-1.18-2,7.1,7.1,0,0,1-.32-1.3H132a7.9,7.9,0,0,0,.39,1.62,6.71,6.71,0,0,0,1.4,2.3,6.15,6.15,0,0,0,2.15,1.47,7.61,7.61,0,0,0,5.53,0,6.15,6.15,0,0,0,2.15-1.47,6.65,6.65,0,0,0,1.39-2.3,8,8,0,0,0,.39-1.62Z" transform="translate(-74.26 -67.53)"/><rect class="cls-1" x="172.77" y="70.5" width="0.74" height="11" transform="translate(174.89 -164.68) rotate(90)"/><rect class="cls-1" x="172.77" y="67.92" width="0.74" height="11" transform="translate(172.31 -167.25) rotate(90)"/><rect class="cls-1" x="151.59" y="0.16" width="1.04" height="4.46"/><rect class="cls-1" x="151.59" y="9.78" width="1.04" height="4.65"/><rect class="cls-1" x="141.61" y="0.16" width="1.04" height="4.46"/><rect class="cls-1" x="141.61" y="9.78" width="1.04" height="4.65"/><rect class="cls-1" x="221.08" y="70.5" width="0.74" height="11" transform="translate(223.19 -212.98) rotate(90)"/><rect class="cls-1" x="221.08" y="67.92" width="0.74" height="11" transform="translate(220.61 -215.56) rotate(90)"/><path class="cls-1" d="M81.3,78.14l.12-.31a2.7,2.7,0,0,1,.14-.29l5.55-9.81a.36.36,0,0,1,.16-.16.64.64,0,0,1,.22,0h.71V81.66h-.9v-12a5.37,5.37,0,0,1,0-.55l-5.56,9.87a.44.44,0,0,1-.4.26h-.16a.45.45,0,0,1-.4-.26l-5.71-9.88a5.45,5.45,0,0,1,0,.56v12h-.89V67.53H75a.69.69,0,0,1,.22,0,.36.36,0,0,1,.16.16L81,77.54A4,4,0,0,1,81.3,78.14Z" transform="translate(-74.26 -67.53)"/><path class="cls-1" d="M241.32,78.14l.12-.31a2.7,2.7,0,0,1,.14-.29l5.55-9.81a.36.36,0,0,1,.16-.16.64.64,0,0,1,.22,0h.71V81.66h-.9v-12a5.37,5.37,0,0,1,0-.55l-5.56,9.87a.44.44,0,0,1-.4.26h-.16a.45.45,0,0,1-.4-.26l-5.71-9.88a5.45,5.45,0,0,1,0,.56v12h-.89V67.53h.7a.69.69,0,0,1,.22,0,.36.36,0,0,1,.16.16l5.7,9.82A4,4,0,0,1,241.32,78.14Z" transform="translate(-74.26 -67.53)"/></g></g></svg>