<svg xmlns="http://www.w3.org/2000/svg" viewBox="0 0 63.72 136.51"><defs><style>.cls-1{fill:#f2f2f2;}</style></defs><title>logo</title><g id="Calque_2" data-name="Calque 2"><g id="Calque_1-2" data-name="Calque 1"><rect class="cls-1" x="26.75" y="38.3" width="11.77" height="1.25"/><rect class="cls-1" x="27.16" y="102.38" width="10.83" height="6.69"/><rect class="cls-1" x="12.07" y="102.38" width="6.94" height="20.27"/><polygon class="cls-1" points="19.01 39.91 12.07 39.91 12.07 28.92 19.01 21.98 19.01 39.91"/><rect class="cls-1" x="45.15" y="102.38" width="6.94" height="20.27"/><rect class="cls-1" x="45.15" y="21.98" width="6.94" height="17.92"/><rect class="cls-1" x="58.96" y="102.38" width="4.44" height="6.69"/><polygon class="cls-1" points="63.72 39.91 58.97 39.91 58.97 33.64 63.72 35.81 63.72 39.91"/><rect class="cls-1" y="102.38" width="4.44" height="6.69"/><polygon class="cls-1" points="4.75 39.91 0 39.91 0 36.36 4.75 33.64 4.75 39.91"/><polyline class="cls-1" points="36.1 136.51 27.16 136.51 27.16 114.73 37.99 114.73 37.99 136.51 36.1 136.51"/><rect class="cls-1" x="26.75" y="35.55" width="11.77" height="1.25"/><rect class="cls-1" x="27.16" y="111.19" width="10.83" height="1.25"/><rect class="cls-1" x="27.16" y="32.8" width="10.83" height="1.25"/><polygon class="cls-1" points="27.16 30.7 37.99 30.7 37.99 9.24 27.16 0 27.16 30.7"/></g></g></svg>